<?xml version="1.0" encoding="UTF-8"?>
<svg version="1.1" xmlns="http://www.w3.org/2000/svg" width="468" height="468">
<path d="M0 0 C4.75260848 0.00259065 9.50521536 0.00016792 14.25782394 -0.00138617 C22.22828653 -0.0031888 30.19873975 -0.00085231 38.1692009 0.00395441 C47.29134847 0.00939329 56.41347366 0.00762927 65.53562069 0.00212801 C73.46787675 -0.00245818 81.4001262 -0.00302715 89.33238316 -0.00043333 C94.02611086 0.00109959 98.71982817 0.00140793 103.41355515 -0.00196981 C225.53275777 -0.07768078 225.53275777 -0.07768078 256.33814621 29.1343255 C281.1940207 55.01472529 282.80843234 95.21732888 283.89234543 128.98198175 C283.91330772 129.63163464 283.93427001 130.28128752 283.95586753 130.95062685 C284.50889298 148.5625596 284.48515075 166.17732774 284.47247171 183.79617929 C284.46988107 188.54878777 284.47230379 193.30139465 284.47385788 198.05400324 C284.47566051 206.02446582 284.47332402 213.99491904 284.4685173 221.96538019 C284.46307842 231.08752776 284.46484244 240.20965295 284.47034371 249.33179998 C284.47492989 257.26405604 284.47549886 265.19630549 284.47290504 273.12856245 C284.47137213 277.82229016 284.47106379 282.51600747 284.47444153 287.20973444 C284.55015249 409.32893706 284.55015249 409.32893706 255.33814621 440.1343255 C229.45774642 464.9902 189.25514283 466.60461164 155.49048996 467.68852472 C154.51601064 467.71996816 154.51601064 467.71996816 153.52184486 467.75204682 C135.90991212 468.30507228 118.29514398 468.28133005 100.67629242 468.26865101 C95.92368394 468.26606036 91.17107706 468.26848309 86.41846848 468.27003717 C78.44800589 468.27183981 70.47755267 468.26950332 62.50709152 468.2646966 C53.38494395 468.25925772 44.26281876 468.26102174 35.14067173 468.266523 C27.20841567 468.27110919 19.27616622 468.27167815 11.34390926 468.26908433 C6.65018156 468.26755142 1.95646425 468.26724308 -2.73726273 468.27062082 C-124.85646535 468.34633179 -124.85646535 468.34633179 -155.66185379 439.1343255 C-180.51772828 413.25392572 -182.13213992 373.05132213 -183.21605301 339.28666925 C-183.2370153 338.63701637 -183.2579776 337.98736349 -183.27957511 337.31802416 C-183.83260056 319.70609141 -183.80885834 302.09132327 -183.79617929 284.47247171 C-183.79358865 279.71986323 -183.79601137 274.96725636 -183.79756546 270.21464777 C-183.79936809 262.24418519 -183.7970316 254.27373197 -183.79222488 246.30327082 C-183.786786 237.18112325 -183.78855003 228.05899805 -183.79405129 218.93685102 C-183.79863748 211.00459497 -183.79920644 203.07234552 -183.79661262 195.14008856 C-183.79507971 190.44636085 -183.79477137 185.75264354 -183.79814911 181.05891657 C-183.87386007 58.93971395 -183.87386007 58.93971395 -154.66185379 28.1343255 C-128.781454 3.27845101 -88.57885041 1.66403937 -54.81419754 0.58012629 C-54.16454466 0.55916399 -53.51489178 0.5382017 -52.84555244 0.51660419 C-35.2336197 -0.03642127 -17.61885156 -0.01267904 0 0 Z " fill="#B6A6D3" transform="translate(183.6618537902832,-0.13432550430297852)"/>
<path d="M0 0 C2.234375 1.859375 2.234375 1.859375 4.34375 4.03125 C6.19743538 6.08712856 6.19743538 6.08712856 9.234375 6.859375 C10.91211022 8.86788928 12.42669772 10.84619698 13.921875 12.984375 C14.36031738 13.60747559 14.79875977 14.23057617 15.25048828 14.87255859 C28.86464473 34.63504376 36.66174947 57.29796224 32.51171875 81.4921875 C30.82102597 90.14752515 28.40675103 98.04985485 24.234375 105.859375 C23.55568359 107.22449219 23.55568359 107.22449219 22.86328125 108.6171875 C12.26851174 129.23248428 -4.90585534 141.97921362 -25.765625 150.859375 C-26.5803125 151.2203125 -27.395 151.58125 -28.234375 151.953125 C-31.51747619 153.12855629 -34.84492848 153.79757319 -38.265625 154.421875 C-38.96107422 154.55118408 -39.65652344 154.68049316 -40.37304688 154.8137207 C-46.80598186 155.95942232 -53.2400561 156.53533134 -59.765625 156.859375 C-60.55922236 159.2129061 -61.35054283 161.56716383 -62.140625 163.921875 C-62.36234375 164.57865234 -62.5840625 165.23542969 -62.8125 165.91210938 C-66.20502417 175.17339809 -66.20502417 175.17339809 -66.765625 184.859375 C-63.0288407 187.35056453 -61.02110681 187.0658976 -56.578125 186.984375 C-55.30582031 186.96632813 -54.03351563 186.94828125 -52.72265625 186.9296875 C-51.74683594 186.90648437 -50.77101563 186.88328125 -49.765625 186.859375 C-51.29348324 193.45842229 -52.84180077 199.73326709 -55.765625 205.859375 C-64.42186824 206.46992507 -71.7106962 206.3988949 -78.765625 200.859375 C-85.50224352 193.0091522 -86.65300029 185.39713007 -86.06591797 175.28125 C-85.15151842 167.9065805 -82.30201834 160.80426153 -79.765625 153.859375 C-80.82523438 153.74207031 -81.88484375 153.62476563 -82.9765625 153.50390625 C-88.02222105 152.64562413 -91.48834822 150.55187626 -95.765625 147.859375 C-96.6525 147.323125 -97.539375 146.786875 -98.453125 146.234375 C-104.51960915 140.00393182 -107.33119788 133.51975416 -107.328125 124.796875 C-107.18897066 118.49549007 -106.12854686 112.71041961 -103.765625 106.859375 C-103.105625 106.859375 -102.445625 106.859375 -101.765625 106.859375 C-101.62125 106.240625 -101.476875 105.621875 -101.328125 104.984375 C-100.765625 102.859375 -100.765625 102.859375 -99.765625 100.859375 C-100.46647217 101.01083984 -101.16731934 101.16230469 -101.8894043 101.31835938 C-105.07620211 102.00397579 -108.26461906 102.68174881 -111.453125 103.359375 C-112.55591797 103.59785156 -113.65871094 103.83632812 -114.79492188 104.08203125 C-115.86162109 104.30761719 -116.92832031 104.53320312 -118.02734375 104.765625 C-119.49627075 105.07983398 -119.49627075 105.07983398 -120.99487305 105.40039062 C-123.64518133 105.8394231 -126.08556232 105.94493167 -128.765625 105.859375 C-125.07916945 98.10944004 -121.00295314 90.80374779 -116.40234375 83.57421875 C-114.66058384 80.90923971 -114.66058384 80.90923971 -113.765625 77.859375 C-118.10844981 82.85120702 -122.44052269 87.852182 -126.765625 92.859375 C-127.54099609 93.75487061 -127.54099609 93.75487061 -128.33203125 94.66845703 C-129.75208833 96.31146308 -131.16599364 97.95955564 -132.578125 99.609375 C-133.38894531 100.55296875 -134.19976562 101.4965625 -135.03515625 102.46875 C-138.85570248 107.07671424 -142.27968646 111.99719379 -145.765625 116.859375 C-144.94884277 116.67761719 -144.13206055 116.49585938 -143.29052734 116.30859375 C-140.23887545 115.63266347 -137.18604544 114.9624122 -134.13232422 114.29589844 C-132.16929334 113.86565828 -130.20767933 113.42896985 -128.24609375 112.9921875 C-127.00214844 112.72148437 -125.75820313 112.45078125 -124.4765625 112.171875 C-122.76412354 111.79482422 -122.76412354 111.79482422 -121.01708984 111.41015625 C-117.8620108 110.87570225 -114.95814277 110.75789099 -111.765625 110.859375 C-111.92417969 111.51550781 -112.08273437 112.17164063 -112.24609375 112.84765625 C-114.04722812 123.28881864 -113.65855994 133.38791057 -108.765625 142.859375 C-108.435625 143.849375 -108.105625 144.839375 -107.765625 145.859375 C-108.87897217 146.0860083 -109.99231934 146.3126416 -111.1394043 146.54614258 C-115.33131966 147.39991847 -119.52277749 148.25592311 -123.71411133 149.11254883 C-125.51672461 149.48065535 -127.319456 149.84818402 -129.12231445 150.21508789 C-134.24470408 151.2577737 -139.36336348 152.31644731 -144.47943115 153.38970947 C-146.56968553 153.81912206 -148.66296363 154.22145832 -150.76025391 154.61474609 C-158.96489216 156.16079028 -158.96489216 156.16079028 -164.765625 161.859375 C-166.00298067 164.54852269 -167.01528648 167.07127106 -167.953125 169.859375 C-168.23357666 170.66101074 -168.51402832 171.46264648 -168.80297852 172.28857422 C-169.43624409 174.10412688 -170.06337414 175.92182702 -170.68554688 177.74121094 C-171.67949767 180.61072712 -172.70383496 183.46774387 -173.74113464 186.32183838 C-174.67520771 188.89770804 -175.59606272 191.47819674 -176.51480103 194.05957031 C-177.19040078 195.94879344 -177.8776857 197.8338248 -178.56518555 199.71875 C-182.35968125 210.5261095 -182.31415503 216.39098988 -179.765625 227.859375 C-195.605625 227.859375 -211.445625 227.859375 -227.765625 227.859375 C-224.765625 217.859375 -224.765625 217.859375 -223.703125 215.234375 C-222.63910794 212.69592902 -222.63910794 212.69592902 -221.88110352 209.24536133 C-220.80043808 204.85220385 -219.42846605 200.59256352 -217.98046875 196.30859375 C-217.71931778 195.52797073 -217.45816681 194.74734772 -217.18910217 193.94306946 C-216.36328585 191.47670735 -215.53328831 189.01177689 -214.703125 186.546875 C-214.14229868 184.87444264 -213.5817493 183.20191738 -213.02148438 181.52929688 C-211.99902281 178.47818274 -210.97505458 175.42758473 -209.94897461 172.37768555 C-209.21848947 170.20582226 -208.49023515 168.03320544 -207.765625 165.859375 C-219.37157689 167.85106838 -230.93302667 170.02383489 -242.47875977 172.33886719 C-245.09256893 172.86226731 -247.70737268 173.38048239 -250.32226562 173.8984375 C-267.98602955 175.96697019 -267.98602955 175.96697019 -281.765625 184.859375 C-283.37194049 188.10452249 -284.56074146 191.44765214 -285.765625 194.859375 C-286.29131165 196.25453176 -286.81878602 197.6490157 -287.34765625 199.04296875 C-287.90485117 200.5438239 -288.46083661 202.04512862 -289.015625 203.546875 C-289.28624756 204.2594043 -289.55687012 204.97193359 -289.83569336 205.70605469 C-292.76411259 213.82829187 -291.68829167 219.207375 -289.765625 227.859375 C-305.275625 227.859375 -320.785625 227.859375 -336.765625 227.859375 C-336.01889431 222.63226015 -335.20780444 218.7453081 -333.5078125 213.87890625 C-333.28416519 213.23304062 -333.06051788 212.58717499 -332.83009338 211.92173767 C-332.1063169 209.83628768 -331.37362915 207.75409746 -330.640625 205.671875 C-330.13365196 204.21731189 -329.62722702 202.76255763 -329.12133789 201.30761719 C-327.89063227 197.77231352 -326.65303875 194.23946989 -325.41326904 190.70733643 C-324.54773392 188.23765338 -323.68940553 185.76549524 -322.83203125 183.29296875 C-320.33513122 176.10543235 -317.79548172 168.93416852 -315.22265625 161.7734375 C-314.77091151 160.51464959 -314.31916999 159.25586052 -313.86743164 157.99707031 C-312.99022726 155.55540985 -312.11064771 153.1146009 -311.22827148 150.67480469 C-309.11953406 144.80839861 -307.14564861 138.94342053 -305.40039062 132.95898438 C-304.62152713 130.3827436 -303.67635264 127.90517473 -302.640625 125.421875 C-301.59913018 122.9069476 -300.62718407 120.4440522 -299.765625 117.859375 C-309.335625 117.859375 -318.905625 117.859375 -328.765625 117.859375 C-325.67892129 114.77267129 -322.65349901 113.08294751 -318.81640625 111.1640625 C-318.12612839 110.81231964 -317.43585052 110.46057678 -316.72465515 110.09817505 C-314.51189582 108.97139165 -312.29537201 107.85229843 -310.078125 106.734375 C-299.98912151 101.63371609 -290.0141618 96.40679615 -280.1940918 90.80297852 C-273.14904943 86.80913231 -266.72984636 83.48171639 -258.765625 81.859375 C-258.765625 81.199375 -258.765625 80.539375 -258.765625 79.859375 C-250.09895833 75.52604167 -241.43229167 71.19270833 -232.765625 66.859375 C-245.635625 66.364375 -245.635625 66.364375 -258.765625 65.859375 C-258.765625 65.199375 -258.765625 64.539375 -258.765625 63.859375 C-236.47471771 52.16309452 -236.47471771 52.16309452 -225.90405273 46.93945312 C-219.99609824 44.00609636 -214.1657114 40.92981234 -208.328125 37.859375 C-199.55114989 33.25347219 -190.70552373 28.88374305 -181.69482422 24.75634766 C-179.79031112 23.8708527 -177.90386264 22.95491565 -176.01953125 22.02734375 C-160.53238846 14.45239968 -144.09226868 6.84648544 -126.81347656 12.66088867 C-124.09658268 13.64781521 -121.42510197 14.72768267 -118.765625 15.859375 C-118.765625 16.519375 -118.765625 17.179375 -118.765625 17.859375 C-118.04890625 18.11460937 -117.3321875 18.36984375 -116.59375 18.6328125 C-109.83762074 21.56295696 -103.97170343 26.66094796 -98.578125 31.609375 C-94.37798878 35.44228619 -89.92895095 38.87909213 -85.390625 42.296875 C-84.68784424 42.82958008 -83.98506348 43.36228516 -83.26098633 43.91113281 C-82.59478271 44.40838867 -81.9285791 44.90564453 -81.2421875 45.41796875 C-80.64486816 45.86454834 -80.04754883 46.31112793 -79.43212891 46.77124023 C-77.63901435 48.04262425 -77.63901435 48.04262425 -74.765625 48.859375 C-73.3115625 47.621875 -73.3115625 47.621875 -71.828125 46.359375 C-68.765625 43.859375 -68.765625 43.859375 -66.93359375 43.9140625 C-63.82134913 45.27111331 -61.58933094 47.27738882 -59.015625 49.484375 C-58.48775391 49.93514404 -57.95988281 50.38591309 -57.41601562 50.8503418 C-56.35474206 51.75859677 -55.29609959 52.66993598 -54.24023438 53.58447266 C-52.94976575 54.70017252 -51.64768455 55.80241187 -50.34375 56.90234375 C-43.01755422 63.140627 -37.47791444 69.48438449 -36.375 79.35546875 C-36.12203703 88.18206962 -37.78255734 94.57019877 -40.765625 102.859375 C-41.25130343 104.24148602 -41.73560744 105.62408056 -42.21875 107.00708008 C-43.80623046 111.54526222 -45.41019464 116.07751806 -47.015625 120.609375 C-47.57561949 122.19267344 -48.13551598 123.77600655 -48.6953125 125.359375 C-50.05095625 129.19310807 -51.40791702 133.02637252 -52.765625 136.859375 C-30.18737856 133.01619615 -13.14780825 125.17534355 1.06640625 106.4453125 C13.93010529 87.89243937 15.26081246 65.86939775 11.72265625 44.17138672 C7.91094819 26.12294904 -5.17737882 10.74123853 -20.078125 0.59765625 C-20.965 0.02402344 -21.851875 -0.54960938 -22.765625 -1.140625 C-23.35214844 -1.53813965 -23.93867188 -1.9356543 -24.54296875 -2.34521484 C-29.41802338 -5.55623474 -34.21433325 -7.62861089 -39.765625 -9.390625 C-40.52101563 -9.64585938 -41.27640625 -9.90109375 -42.0546875 -10.1640625 C-50.36189871 -12.87603867 -58.59580649 -13.31877985 -67.265625 -13.703125 C-68.1834375 -13.74630859 -69.10125 -13.78949219 -70.046875 -13.83398438 C-72.28634561 -13.93895956 -74.52590592 -14.04111748 -76.765625 -14.140625 C-75.765625 -16.140625 -75.765625 -16.140625 -73.140625 -17.203125 C-47.18185897 -24.41389334 -20.88904448 -15.69921977 0 0 Z " fill="#470C77" transform="translate(394.765625,127.140625)"/>
<path d="M0 0 C2.203125 1.77734375 2.203125 1.77734375 4.25 3.9375 C4.93578125 4.64777344 5.6215625 5.35804688 6.328125 6.08984375 C9.08089574 9.23494863 9.27995258 11.55350584 9.22091675 15.71450806 C8.82621403 19.79790095 7.39534715 23.4686287 5.97265625 27.29296875 C5.33907285 29.07612929 4.70561325 30.85933383 4.07226562 32.64257812 C3.07195963 35.41071897 2.06638829 38.17685086 1.05688477 40.94165039 C-4.43773888 56.06690208 -4.43773888 56.06690208 -6 72 C-10.33509572 69.88911218 -14.39063721 67.39018039 -18.5 64.875 C-19.30010498 64.38942627 -20.10020996 63.90385254 -20.92456055 63.40356445 C-24.57968221 61.16981781 -28.18843314 58.91507006 -31.67578125 56.42578125 C-32.71089844 55.68714844 -33.74601563 54.94851563 -34.8125 54.1875 C-35.70582031 53.52105469 -36.59914062 52.85460937 -37.51953125 52.16796875 C-39.98267929 50.67865821 -39.98267929 50.67865821 -42.703125 51.75 C-43.84007812 52.36875 -43.84007812 52.36875 -45 53 C-46.9375 53.8125 -46.9375 53.8125 -49 54 C-52.25 52.5625 -52.25 52.5625 -55 51 C-56.83195228 60.15976142 -55.81046544 66.45617636 -52.875 75.2421875 C-52 78 -52 78 -52 80 C-110.74 80 -169.48 80 -230 80 C-227.771529 69.97188049 -227.771529 69.97188049 -226 65.9375 C-224.48188909 62.30747834 -223.37344407 58.80423485 -222.48046875 54.98046875 C-220.4822422 46.7438764 -217.47583045 35.07470092 -210.3046875 30.1484375 C-209.54414063 29.76945312 -208.78359375 29.39046875 -208 29 C-206.67620168 34.96568855 -207.49737603 38.86174731 -209.52734375 44.55859375 C-209.76424927 45.2592395 -210.00115479 45.95988525 -210.24523926 46.6817627 C-211.12618388 49.27266898 -212.03336311 51.85459557 -212.9375 54.4375 C-214.938125 60.233125 -216.93875 66.02875 -219 72 C-203.49 72 -187.98 72 -172 72 C-172.99 69.03 -173.98 66.06 -175 63 C-175.97889066 55.92645094 -173.13122344 49.5188529 -170.8125 42.9375 C-170.42513672 41.77927734 -170.03777344 40.62105469 -169.63867188 39.42773438 C-165.13383934 26.46424107 -165.13383934 26.46424107 -159.21557617 22.9362793 C-156.53437858 21.80323326 -153.96026048 21.25767273 -151.1015625 20.703125 C-149.91377197 20.46932129 -148.72598145 20.23551758 -147.50219727 19.99462891 C-146.22272217 19.74890137 -144.94324707 19.50317383 -143.625 19.25 C-142.29278313 18.99060639 -140.96067191 18.73066966 -139.62866211 18.47021484 C-137.55131132 18.064024 -135.47389305 17.65823241 -133.39604187 17.25460815 C-128.45386219 16.29271146 -123.52052814 15.29248037 -118.58984375 14.2734375 C-116.56646238 13.85798397 -114.54297872 13.44303206 -112.51947021 13.02819824 C-110.59952707 12.63262876 -108.68085109 12.23092474 -106.76220703 11.82910156 C-101.08594107 10.67258081 -95.79891312 9.64130434 -90 10 C-91.5769599 18.09623545 -94.15476109 25.76599175 -96.8125 33.5625 C-97.71858564 36.24136719 -98.62133609 38.92135134 -99.5234375 41.6015625 C-99.74215012 42.25025803 -99.96086273 42.89895355 -100.186203 43.56730652 C-102.22644328 49.63547312 -104.12988147 55.73827304 -105.96484375 61.87109375 C-107.10637296 65.32152733 -108.56835501 68.65949502 -110 72 C-94.16 72 -78.32 72 -62 72 C-62.99 69.03 -63.98 66.06 -65 63 C-65.66568371 55.70979395 -64.10951297 50.29124446 -61.5625 43.5 C-61.03148682 42.03385254 -61.03148682 42.03385254 -60.48974609 40.53808594 C-59.73296992 38.45108818 -58.97043445 36.36617131 -58.20263672 34.28320312 C-56.95580481 30.87934694 -55.7418589 27.46515012 -54.53515625 24.046875 C-53.73213835 21.78111971 -52.92876185 19.51549148 -52.125 17.25 C-51.7441626 16.17298828 -51.3633252 15.09597656 -50.97094727 13.98632812 C-50.61186279 12.98537109 -50.25277832 11.98441406 -49.8828125 10.953125 C-49.56715332 10.06786133 -49.25149414 9.18259766 -48.92626953 8.27050781 C-47.6884294 5.23626606 -46.71028161 3.36066113 -43.73828125 1.8515625 C-40.83354593 0.9482354 -38.21809013 0.5940788 -35.1875 0.375 C-34.21167969 0.30023438 -33.23585937 0.22546875 -32.23046875 0.1484375 C-31.49441406 0.09945313 -30.75835937 0.05046875 -30 0 C-30 0.99 -30 1.98 -30 3 C-29.67 3.33 -29.34 3.66 -29 4 C-26.64002976 3.62372923 -24.33458462 3.18612739 -22 2.6875 C-21.31953613 2.54795898 -20.63907227 2.40841797 -19.93798828 2.26464844 C-16.23074621 1.49836177 -12.55071729 0.65335425 -8.875 -0.25 C-5.14316508 -0.97229063 -3.52924758 -1.109036 0 0 Z " fill="#F8F3FB" transform="translate(277,283)"/>
<path d="M0 0 C0.62422852 0.3405542 1.24845703 0.6811084 1.89160156 1.03198242 C6.38249378 3.58498133 6.38249378 3.58498133 7.5 6.9375 C9.16044333 7.61951918 10.82829789 8.28356248 12.5 8.9375 C32.1378437 24.21829439 43.77366019 46.4447077 47.08984375 70.9453125 C49.04383321 88.11295149 46.50866918 104.14713522 39.5 119.9375 C39.108125 120.82050781 38.71625 121.70351562 38.3125 122.61328125 C34.06707804 131.5929073 28.2746192 139.69023295 21.5 146.9375 C20.84 146.9375 20.18 146.9375 19.5 146.9375 C19.25765625 147.515 19.0153125 148.0925 18.765625 148.6875 C15.39298485 154.68330472 8.42327465 159.55277163 2.5 162.9375 C1.51 162.9375 0.52 162.9375 -0.5 162.9375 C-0.5 163.5975 -0.5 164.2575 -0.5 164.9375 C-7.04418962 168.41199243 -13.36390647 171.47883425 -20.5390625 173.39453125 C-22.55584546 173.88529056 -22.55584546 173.88529056 -24.5 174.9375 C-26.8329866 174.97772391 -29.16706666 174.98070247 -31.5 174.9375 C-31.5 175.5975 -31.5 176.2575 -31.5 176.9375 C-35.10993172 178.07230527 -38.4842327 178.03765767 -42.25 178 C-43.42046875 177.99097656 -44.5909375 177.98195313 -45.796875 177.97265625 C-46.68890625 177.96105469 -47.5809375 177.94945312 -48.5 177.9375 C-48.603125 178.906875 -48.70625 179.87625 -48.8125 180.875 C-49.44629879 185.42343839 -50.94755827 189.63167104 -52.5 193.9375 C-51.33984375 193.7209375 -51.33984375 193.7209375 -50.15625 193.5 C-44.17176085 192.43345738 -38.57662565 191.70378363 -32.5 191.9375 C-33.39581674 197.67072712 -34.36520627 203.08136845 -36.5703125 208.48046875 C-37.93360281 212.08345028 -39.04932383 215.75818604 -40.1875 219.4375 C-40.4141333 220.16928467 -40.6407666 220.90106934 -40.87426758 221.6550293 C-41.41798636 223.41529543 -41.95924929 225.17631982 -42.5 226.9375 C-50.65604088 228.83249091 -59.63013996 228.92804682 -67.5 225.9375 C-68.675625 225.504375 -69.85125 225.07125 -71.0625 224.625 C-78.12813719 221.15641447 -83.5409588 216.13421325 -86.25 208.6875 C-89.34451871 197.29559047 -88.09199876 185.03421045 -84.5 173.9375 C-85.05429687 173.67195312 -85.60859375 173.40640625 -86.1796875 173.1328125 C-86.90414062 172.77960938 -87.62859375 172.42640625 -88.375 172.0625 C-89.09429687 171.71445312 -89.81359375 171.36640625 -90.5546875 171.0078125 C-92.5 169.9375 -92.5 169.9375 -94.5 167.9375 C-96.71072977 167.69496187 -96.71072977 167.69496187 -99.125 167.8125 C-99.94226563 167.83054687 -100.75953125 167.84859375 -101.6015625 167.8671875 C-102.22804688 167.89039063 -102.85453125 167.91359375 -103.5 167.9375 C-100.7901759 171.39836645 -100.7901759 171.39836645 -97.8125 174.625 C-95.51118561 176.92631439 -95.31730926 178.79640123 -95.25 181.9375 C-95.28464401 187.26401692 -96.74940522 191.94622084 -98.5 196.9375 C-99.16 196.9375 -99.82 196.9375 -100.5 196.9375 C-100.438125 198.13375 -100.37625 199.33 -100.3125 200.5625 C-100.09680018 204.73269648 -101.61745903 207.25997811 -103.5 210.9375 C-109.15974945 225.25846201 -110.78386859 239.65739228 -111.5 254.9375 C-112.14324219 254.525 -112.78648437 254.1125 -113.44921875 253.6875 C-118.62151626 250.38195181 -123.81761257 247.12679022 -129.0625 243.9375 C-134.01713812 240.9080252 -138.7848822 237.70649786 -143.4765625 234.28515625 C-145.55426112 232.77347549 -145.55426112 232.77347549 -148.5 231.9375 C-148.5 231.2775 -148.5 230.6175 -148.5 229.9375 C-149.03625 229.855 -149.5725 229.7725 -150.125 229.6875 C-153.3352431 228.67373902 -155.76292392 226.86589451 -158.5 224.9375 C-156.85 223.2875 -155.2 221.6375 -153.5 219.9375 C-148.62963766 221.5896033 -144.62999765 224.3083447 -140.375 227.125 C-138.85959352 228.11752122 -137.34396823 229.10970844 -135.828125 230.1015625 C-135.09142578 230.5852832 -134.35472656 231.06900391 -133.59570312 231.56738281 C-129.95445112 233.94794039 -126.27714831 236.27054387 -122.6015625 238.59765625 C-120.8877165 239.69031271 -119.19116474 240.81005684 -117.5 241.9375 C-117.58121094 241.24052002 -117.66242188 240.54354004 -117.74609375 239.82543945 C-118.45733313 228.35398286 -114.42088885 218.72700073 -110.5 208.125 C-109.49217915 205.37330123 -108.4907666 202.61980426 -107.50415039 199.86042786 C-106.89391649 198.15609022 -106.27143417 196.45606882 -105.63452148 194.76152039 C-103.77130191 189.58789279 -103.06437443 185.44300974 -103.5 179.9375 C-104.85395822 177.42590292 -104.85395822 177.42590292 -106.875 175.5625 C-107.50148438 174.91539062 -108.12796875 174.26828125 -108.7734375 173.6015625 C-109.62808594 172.77785156 -109.62808594 172.77785156 -110.5 171.9375 C-111.49 170.9475 -111.49 170.9475 -112.5 169.9375 C-118.96606974 169.66700704 -125.32895896 171.59544895 -131.515625 173.23828125 C-135.81273868 174.24506574 -140.1025928 174.65536547 -144.5 174.9375 C-143.015 172.9575 -143.015 172.9575 -141.5 170.9375 C-143.25032844 171.07933696 -145.00025534 171.22613429 -146.75 171.375 C-147.72453125 171.45621094 -148.6990625 171.53742188 -149.703125 171.62109375 C-152.06461753 171.88824584 -154.21901065 172.29121968 -156.5 172.9375 C-153.8346041 169.49157566 -150.88435564 169.09117057 -146.734375 168.21875 C-146.06392151 168.07473755 -145.39346802 167.9307251 -144.70269775 167.78234863 C-142.55387767 167.32351743 -140.40215541 166.88039195 -138.25 166.4375 C-136.84874383 166.14033258 -135.44769949 165.84216446 -134.046875 165.54296875 C-130.56318613 164.80233719 -127.07591365 164.08065909 -123.58666992 163.36669922 C-121.48417728 162.93424548 -119.38365946 162.4930083 -117.28320312 162.05078125 C-115.94407391 161.77313111 -114.60488368 161.49577502 -113.265625 161.21875 C-111.49106934 160.8484668 -111.49106934 160.8484668 -109.68066406 160.47070312 C-106.87088038 159.99967399 -104.33886489 159.82805622 -101.5 159.9375 C-101.84933594 159.25042969 -102.19867188 158.56335938 -102.55859375 157.85546875 C-103.01363281 156.95441406 -103.46867187 156.05335938 -103.9375 155.125 C-104.38996094 154.23167969 -104.84242188 153.33835937 -105.30859375 152.41796875 C-107.56827897 147.71337821 -107.65078903 143.61912345 -107.625 138.5 C-107.63080078 137.3543457 -107.63080078 137.3543457 -107.63671875 136.18554688 C-107.63542969 135.44498047 -107.63414062 134.70441406 -107.6328125 133.94140625 C-107.63168457 133.26924072 -107.63055664 132.5970752 -107.62939453 131.90454102 C-107.49199609 129.81582541 -107.06530559 127.94919075 -106.5 125.9375 C-113.43700142 126.49472997 -120.13422583 127.55129677 -126.9375 129 C-128.6856486 129.36850105 -130.43432692 129.73450048 -132.18359375 130.09765625 C-132.94212646 130.25886963 -133.70065918 130.42008301 -134.48217773 130.58618164 C-136.5 130.9375 -136.5 130.9375 -139.5 130.9375 C-137.7778502 126.94211246 -135.12251392 123.69232416 -132.4375 120.3125 C-131.94652832 119.69076904 -131.45555664 119.06903809 -130.94970703 118.4284668 C-127.36373985 113.92714348 -123.60484864 109.62607685 -119.703125 105.39453125 C-116.46381584 101.78189745 -113.45863983 97.98926065 -110.4453125 94.1875 C-108.5 91.9375 -108.5 91.9375 -105.5 89.9375 C-106.92114154 93.75872393 -108.69189532 97.16372205 -110.7578125 100.67578125 C-111.38300781 101.74248047 -112.00820313 102.80917969 -112.65234375 103.90820312 C-113.30332031 105.01099609 -113.95429688 106.11378906 -114.625 107.25 C-115.28371094 108.37212891 -115.94242187 109.49425781 -116.62109375 110.65039062 C-118.2443237 113.41458656 -119.87072154 116.17686632 -121.5 118.9375 C-115.63261496 118.34384513 -109.90576985 117.53004866 -104.125 116.375 C-96.89069767 114.9375 -96.89069767 114.9375 -93.5 114.9375 C-94.16 116.9175 -94.82 118.8975 -95.5 120.9375 C-96.16 120.9375 -96.82 120.9375 -97.5 120.9375 C-100.25042873 131.15337815 -101.87613796 143.28854814 -97.0625 153.0625 C-91.4757834 161.7689018 -83.024983 164.91086989 -73.5 167.9375 C-74.47736933 172.59879989 -75.51941484 177.01805848 -77.125 181.5 C-79.7066468 190.03008039 -80.1516329 200.37181619 -76.5 208.625 C-73.20607068 214.21526863 -68.5298894 216.92753687 -62.5 218.9375 C-58.16328697 219.07251597 -53.83988266 218.98046914 -49.5 218.9375 C-47.025 210.5225 -47.025 210.5225 -44.5 201.9375 C-49.3828125 202.08398438 -49.3828125 202.08398438 -54.265625 202.23046875 C-57.76842115 201.91318649 -59.17723717 201.56422932 -61.5 198.9375 C-62.82023364 190.5562415 -58.5986124 181.51510353 -55.5 173.9375 C-55.23131104 173.22770996 -54.96262207 172.51791992 -54.68579102 171.78662109 C-53.5 169.9375 -53.5 169.9375 -51.59912109 169.37915039 C-50.83164551 169.34813232 -50.06416992 169.31711426 -49.2734375 169.28515625 C-48.41459961 169.23415771 -47.55576172 169.18315918 -46.67089844 169.13061523 C-45.74825195 169.08751221 -44.82560547 169.04440918 -43.875 169 C-22.82598126 167.45690595 -4.07499841 159.31646611 11.5 144.9375 C12.15226563 144.35355469 12.80453125 143.76960937 13.4765625 143.16796875 C25.38472543 131.96800053 32.45960494 116.55088593 36.5 100.9375 C36.83837891 99.71353516 36.83837891 99.71353516 37.18359375 98.46484375 C42.46790622 76.63516673 35.77368775 53.94207226 24.5703125 35.1875 C22.18938564 31.44989406 19.60277575 27.99704621 16.75 24.609375 C15.5 22.9375 15.5 22.9375 15.5 20.9375 C14.62988281 20.80021484 14.62988281 20.80021484 13.7421875 20.66015625 C10.95057961 19.760422 9.70049305 18.43837928 7.625 16.375 C-1.53361951 7.99711527 -12.80379466 2.80207849 -24.5 -1.0625 C-25.41652344 -1.3821875 -26.33304688 -1.701875 -27.27734375 -2.03125 C-40.53731809 -6.04829692 -56.4119806 -5.42517313 -69.5 -1.0625 C-67.63408203 -0.98902344 -67.63408203 -0.98902344 -65.73046875 -0.9140625 C-36.94054928 0.32558393 -16.00671507 8.25966677 3.77734375 29.3671875 C9.35791009 35.90105596 12.98102125 43.14819299 16.5 50.9375 C16.87125 51.71867187 17.2425 52.49984375 17.625 53.3046875 C19.8994233 60.14826475 19.96175129 67.78627961 20.5 74.9375 C20.55494629 75.6603418 20.60989258 76.38318359 20.66650391 77.12792969 C21.95644957 96.83829936 14.09579716 114.07526163 1.5 128.9375 C-5.74503262 136.47094952 -14.22763191 143.23424524 -24.5 145.9375 C-23.20700306 143.05312221 -21.84058637 141.06530579 -19.5 138.9375 C-20.16 138.6075 -20.82 138.2775 -21.5 137.9375 C-21.83 137.2775 -22.16 136.6175 -22.5 135.9375 C-21.82195312 135.54820312 -21.14390625 135.15890625 -20.4453125 134.7578125 C-6.31191459 126.26211348 2.27734478 115.67584326 7.4375 100.109375 C10.75450271 85.82783556 8.17039789 70.81948535 1.5 57.9375 C-0.59653699 54.69553792 -2.93062211 51.81455549 -5.5 48.9375 C-6.07234375 48.26074219 -6.6446875 47.58398438 -7.234375 46.88671875 C-20.13389307 32.69173626 -38.19778761 28.58556652 -56.5 26.9375 C-56.5 25.9475 -56.5 24.9575 -56.5 23.9375 C-57.16 23.6075 -57.82 23.2775 -58.5 22.9375 C-57.54287109 22.73833984 -57.54287109 22.73833984 -56.56640625 22.53515625 C-55.74011719 22.35855469 -54.91382813 22.18195313 -54.0625 22 C-53.23878906 21.82597656 -52.41507812 21.65195313 -51.56640625 21.47265625 C-49.52338796 21.12997006 -49.52338796 21.12997006 -48.5 19.9375 C-40.77969862 19.42281324 -33.95201659 21.0025096 -26.5 22.9375 C-26.5 23.5975 -26.5 24.2575 -26.5 24.9375 C-25.78972656 25.13085938 -25.07945312 25.32421875 -24.34765625 25.5234375 C-23.42855469 25.78382813 -22.50945312 26.04421875 -21.5625 26.3125 C-20.64597656 26.56773437 -19.72945312 26.82296875 -18.78515625 27.0859375 C-16.5 27.9375 -16.5 27.9375 -15.5 29.9375 C-14.55125 30.4325 -13.6025 30.9275 -12.625 31.4375 C-5.35508041 35.43444749 1.56853027 41.6118614 5.5 48.9375 C4.1586265 45.1098433 2.45037939 42.37119025 -0.125 39.25 C-3.5 35.15178571 -3.5 35.15178571 -3.5 32.9375 C-4.16 32.9375 -4.82 32.9375 -5.5 32.9375 C-6.5896512 31.7506637 -7.62248565 30.51130294 -8.625 29.25 C-11.70055108 25.5993984 -14.73643675 23.24325114 -18.8984375 20.9453125 C-20.5 19.9375 -20.5 19.9375 -21.5 17.9375 C-23.76073097 16.86536999 -25.98758364 15.91114688 -28.3125 15 C-28.92287109 14.74798828 -29.53324219 14.49597656 -30.16210938 14.23632812 C-41.66574247 9.66062056 -52.46238662 8.4991835 -64.75976562 8.5859375 C-72.77284829 8.46874433 -72.77284829 8.46874433 -76.71875 5.5859375 C-78.91925412 2.31413533 -79.22525119 0.80550636 -78.5 -3.0625 C-75.92477187 -7.97884461 -72.05368785 -9.48450784 -67.0546875 -11.28125 C-44.79233741 -18.08930813 -19.57229452 -10.87762195 0 0 Z " fill="#F8F3FA" transform="translate(388.5,113.0625)"/>
<path d="M0 0 C6.27 0 12.54 0 19 0 C19 0.66 19 1.32 19 2 C20.299375 2.04125 21.59875 2.0825 22.9375 2.125 C27.85672653 2.65178331 30.92713393 4.53148019 34.859375 7.4296875 C36.9849372 9.04552967 36.9849372 9.04552967 39.35546875 10.37890625 C42.61438307 12.37661591 45.57592463 14.68745753 48.5625 17.0625 C49.1709375 17.54275635 49.779375 18.0230127 50.40625 18.51782227 C55.44875883 22.51657895 60.38409371 26.63363046 65.28125 30.80859375 C68.09695341 33.07814779 70.96416507 35.04010069 74 37 C74.268125 36.401875 74.53625 35.80375 74.8125 35.1875 C76.02493496 32.95406717 76.94652273 31.50061801 79 30 C82.82004921 30.12733497 85.27876953 32.50553874 88 35 C88 35.66 88 36.32 88 37 C88.54398437 37.2475 89.08796875 37.495 89.6484375 37.75 C100.83230058 43.69491061 113.60971337 53.87899126 118 66 C118.35449219 66.88429688 118.70898438 67.76859375 119.07421875 68.6796875 C120.23049222 72.82665986 120.33037324 76.59257147 120.3125 80.875 C120.32861328 81.63941406 120.34472656 82.40382813 120.36132812 83.19140625 C120.36602072 88.71928187 119.21265714 92.96533402 117 98 C116.62617188 98.95648438 116.25234375 99.91296875 115.8671875 100.8984375 C115.53976562 101.71570313 115.21234375 102.53296875 114.875 103.375 C114.54242188 104.20773438 114.20984375 105.04046875 113.8671875 105.8984375 C113 108 113 108 112 110 C112.99 110 113.98 110 115 110 C115.37125 109.13375 115.37125 109.13375 115.75 108.25 C117.16926295 105.6953267 118.94069854 104.05930146 121 102 C122.23512079 99.86690808 122.23512079 99.86690808 123 98 C123.66 98 124.32 98 125 98 C125.103125 97.175 125.20625 96.35 125.3125 95.5 C126 92 126 92 127.5625 88.625 C131.83497876 77.52078541 129.01642856 63.71861482 125 53 C123.55937565 50.1906029 122.02902969 47.57232774 120.26953125 44.953125 C119 43 119 43 118 40 C116.68066335 39.30604538 115.3454925 38.64177267 114 38 C112.98375105 36.97291106 112.00631449 35.90652369 111.0625 34.8125 C102.3232815 25.86787252 90.22836051 21.91426228 78.0625 20.5625 C74.21934214 19.85661386 72.53164908 18.99194892 70 16 C69.19842025 12.2821968 69.54840853 9.14403171 70.9375 5.625 C77.20277544 0.68872238 86.47931047 1.77094347 94 2 C93.67 2.99 93.34 3.98 93 5 C90.69 5.33 88.38 5.66 86 6 C86 7.32 86 8.64 86 10 C86.70382812 9.95359375 87.40765625 9.9071875 88.1328125 9.859375 C103.78904182 9.28708463 119.63926006 15.08503531 131.4375 25.4375 C132.97963561 26.9367284 134.50219542 28.45648146 136 30 C136.96873047 30.95519531 136.96873047 30.95519531 137.95703125 31.9296875 C148.6431924 43.15132077 152.41587331 57.68430432 152.20703125 72.796875 C151.19269382 88.49039755 144.35614439 100.84395926 133.0234375 111.38671875 C129.23554755 114.66074766 125.33752872 117.50263498 121 120 C122.65 120.33 124.3 120.66 126 121 C125 123 125 123 123.1875 123.8125 C120.80383426 124.90103965 120.80383426 124.90103965 119.25390625 127.4296875 C114.96214063 132.32393668 107.70338853 133.65332321 101.37109375 134.24609375 C99.1875 134.25 99.1875 134.25 96 134 C97.4415165 126.59866529 99.75419528 119.74911271 102.375 112.6875 C103.92916052 108.46277367 105.47235959 104.23439143 107 100 C107.38381836 98.94530518 107.76763672 97.89061035 108.16308594 96.80395508 C111.47077645 87.38765951 113.2812574 77.71349262 109.4375 68.0625 C105.13072037 60.13978935 98.67960997 54.72193518 91.8125 49.0625 C91.11092773 48.48209961 90.40935547 47.90169922 89.68652344 47.30371094 C89.01266602 46.76133789 88.33880859 46.21896484 87.64453125 45.66015625 C86.73731323 44.92744507 86.73731323 44.92744507 85.81176758 44.17993164 C83.8469774 42.90034251 82.31545761 42.33460544 80 42 C78.23326964 42.94982336 78.23326964 42.94982336 76.75 44.4375 C75.8425 45.283125 74.935 46.12875 74 47 C69.09916084 44.32625104 64.72444409 41.4279728 60.375 37.9375 C59.77526367 37.4628833 59.17552734 36.9882666 58.55761719 36.49926758 C53.81250408 32.71897755 49.22698955 28.76776871 44.64331055 24.79492188 C40.60195149 21.35610637 36.39970453 18.62273518 31.73046875 16.12109375 C31.15941406 15.75113281 30.58835937 15.38117188 30 15 C30 14.34 30 13.68 30 13 C29.175 12.896875 28.35 12.79375 27.5 12.6875 C24 12 24 12 20.5 10.4375 C11.34627531 6.87771818 0.90187332 8.4957705 -8 12 C-8.87398437 12.3403125 -9.74796875 12.680625 -10.6484375 13.03125 C-13.78887856 14.30463432 -16.89433951 15.64390843 -20 17 C-20.67095703 17.29036133 -21.34191406 17.58072266 -22.03320312 17.87988281 C-41.89432638 26.48756135 -60.94280543 36.56826284 -80.0703125 46.6796875 C-87.37752164 50.54070194 -94.6875546 54.39452048 -102.0625 58.125 C-103.16722656 58.68445313 -104.27195312 59.24390625 -105.41015625 59.8203125 C-108 61 -108 61 -110 61 C-110 61.66 -110 62.32 -110 63 C-101.09 63 -92.18 63 -83 63 C-86.73126535 66.73126535 -90.72930402 68.70449473 -95.375 71.125 C-96.22578125 71.58003906 -97.0765625 72.03507812 -97.953125 72.50390625 C-99.19449219 73.15552734 -99.19449219 73.15552734 -100.4609375 73.8203125 C-101.21165527 74.21492676 -101.96237305 74.60954102 -102.73583984 75.01611328 C-105.14765668 76.06416395 -107.41128467 76.57510621 -110 77 C-110 77.66 -110 78.32 -110 79 C-110.52464844 79.18433594 -111.04929687 79.36867188 -111.58984375 79.55859375 C-119.67100181 82.5839857 -127.11748785 86.67201218 -134.69384766 90.76025391 C-138.49152265 92.8018158 -142.30824691 94.80689669 -146.125 96.8125 C-146.89166992 97.21597656 -147.65833984 97.61945313 -148.44824219 98.03515625 C-158.61805286 103.38375411 -168.810473 108.68909502 -179 114 C-165.14 114.495 -165.14 114.495 -151 115 C-151.65255018 118.26275088 -152.2808144 121.0979819 -153.3125 124.203125 C-153.71178711 125.40690796 -153.71178711 125.40690796 -154.11914062 126.63500977 C-154.40982422 127.49795654 -154.70050781 128.36090332 -155 129.25 C-155.30615234 130.16386475 -155.61230469 131.07772949 -155.92773438 132.01928711 C-159.07519056 141.34307634 -162.42291112 150.59290449 -165.77734375 159.84375 C-168.92595889 168.53639729 -171.96541479 177.26702969 -175 186 C-178 185 -178 185 -179 184 C-180.98 184.99 -180.98 184.99 -183 186 C-182.36867378 181.71600065 -181.40578698 177.6977541 -180.125 173.5625 C-179.79757813 172.49128906 -179.47015625 171.42007813 -179.1328125 170.31640625 C-178 167 -178 167 -176.546875 163.62109375 C-174.84464061 159.6363178 -173.46640553 155.6164494 -172.125 151.5 C-171.8681543 150.72188965 -171.61130859 149.9437793 -171.34667969 149.14208984 C-170.31631031 146.01985465 -169.29295752 142.89534406 -168.27050781 139.77050781 C-167.81286095 138.37331258 -167.35408692 136.97648592 -166.89404297 135.58007812 C-166.28590768 133.73400254 -165.68188664 131.88657311 -165.078125 130.0390625 C-164 127 -164 127 -162 123 C-178.5 123 -195 123 -212 123 C-212 122.34 -212 121.68 -212 121 C-210.75539217 120.32332002 -209.50403104 119.65905281 -208.25 119 C-207.55390625 118.62875 -206.8578125 118.2575 -206.140625 117.875 C-204 117 -204 117 -200 117 C-200 116.34 -200 115.68 -200 115 C-198.65035156 114.34257812 -198.65035156 114.34257812 -197.2734375 113.671875 C-188.13286798 109.17966821 -179.16688527 104.41347178 -170.23925781 99.51269531 C-164.38874628 96.30132856 -158.52401407 93.12144842 -152.625 90 C-151.63705444 89.47611694 -151.63705444 89.47611694 -150.62915039 88.94165039 C-143.13479475 84.98626931 -135.56712404 81.29405469 -127.8125 77.875 C-127.03197266 77.52824219 -126.25144531 77.18148437 -125.44726562 76.82421875 C-121.65703004 75.14609918 -117.86434498 73.50237059 -114 72 C-114 71.34 -114 70.68 -114 70 C-122.91 70 -131.82 70 -141 70 C-136.98689532 66.78951626 -133.25700492 64.38061596 -128.75 62.0625 C-127.41491241 61.36675242 -126.0802753 60.6701397 -124.74609375 59.97265625 C-124.10397949 59.63766113 -123.46186523 59.30266602 -122.80029297 58.95751953 C-119.75593115 57.33831868 -116.78890186 55.58545595 -113.83203125 53.8125 C-112 53 -112 53 -108 53 C-108 52.34 -108 51.68 -108 51 C-96.64667787 44.93848056 -85.22652673 39.0647579 -73.6875 33.36328125 C-68.45373278 30.76457044 -63.24763232 28.14652955 -58.10546875 25.37109375 C-57.26008545 24.91710205 -56.41470215 24.46311035 -55.54370117 23.99536133 C-53.88227598 23.10030618 -52.22468065 22.198095 -50.5715332 21.2878418 C-46.36437506 19.02476325 -42.84699823 17.41945177 -38 17 C-37.67 16.01 -37.34 15.02 -37 14 C-34.19921875 12.61328125 -34.19921875 12.61328125 -30.6875 11.3125 C-29.53636719 10.87550781 -28.38523438 10.43851563 -27.19921875 9.98828125 C-24 9 -24 9 -20 9 C-20 8.34 -20 7.68 -20 7 C-19.33613281 6.80664062 -18.67226562 6.61328125 -17.98828125 6.4140625 C-12.51689096 4.81682473 -12.51689096 4.81682473 -7.1875 2.8125 C-4.67353287 1.87874078 -2.66053815 1.84796925 0 2 C0 1.34 0 0.68 0 0 Z " fill="#F8F2FA" transform="translate(246,130)"/>
<path d="M0 0 C-0.165 0.5775 -0.33 1.155 -0.5 1.75 C-1.14462031 4.26664369 -1.14462031 4.26664369 -1 8 C-1.67353516 8.32162109 -2.34707031 8.64324219 -3.04101562 8.97460938 C-27.3432666 20.36917128 -27.3432666 20.36917128 -50.8828125 33.21875 C-56.44806395 36.39889368 -62.21566301 39.1748684 -67.96875 41.99609375 C-70.00763359 43.00377276 -72.03622423 44.02972766 -74.0625 45.0625 C-74.70461426 45.38863281 -75.34672852 45.71476562 -76.00830078 46.05078125 C-77.77457178 46.94893213 -79.53966574 47.84939664 -81.3046875 48.75 C-84 50 -84 50 -86 50 C-86 50.66 -86 51.32 -86 52 C-77.09 52 -68.18 52 -59 52 C-62.73126535 55.73126535 -66.72930402 57.70449473 -71.375 60.125 C-72.22578125 60.58003906 -73.0765625 61.03507812 -73.953125 61.50390625 C-74.78070313 61.93832031 -75.60828125 62.37273437 -76.4609375 62.8203125 C-77.58701416 63.41223389 -77.58701416 63.41223389 -78.73583984 64.01611328 C-81.14765668 65.06416395 -83.41128467 65.57510621 -86 66 C-86 66.66 -86 67.32 -86 68 C-86.52464844 68.18433594 -87.04929687 68.36867188 -87.58984375 68.55859375 C-95.67100181 71.5839857 -103.11748785 75.67201218 -110.69384766 79.76025391 C-114.49152265 81.8018158 -118.30824691 83.80689669 -122.125 85.8125 C-122.89166992 86.21597656 -123.65833984 86.61945313 -124.44824219 87.03515625 C-134.61805286 92.38375411 -144.810473 97.68909502 -155 103 C-141.14 103.495 -141.14 103.495 -127 104 C-127.65255018 107.26275088 -128.2808144 110.0979819 -129.3125 113.203125 C-129.71178711 114.40690796 -129.71178711 114.40690796 -130.11914062 115.63500977 C-130.40982422 116.49795654 -130.70050781 117.36090332 -131 118.25 C-131.30615234 119.16386475 -131.61230469 120.07772949 -131.92773438 121.01928711 C-135.07519056 130.34307634 -138.42291112 139.59290449 -141.77734375 148.84375 C-144.92595889 157.53639729 -147.96541479 166.26702969 -151 175 C-154 174 -154 174 -155 173 C-156.98 173.99 -156.98 173.99 -159 175 C-158.36867378 170.71600065 -157.40578698 166.6977541 -156.125 162.5625 C-155.79757813 161.49128906 -155.47015625 160.42007813 -155.1328125 159.31640625 C-154 156 -154 156 -152.546875 152.62109375 C-150.84464061 148.6363178 -149.46640553 144.6164494 -148.125 140.5 C-147.8681543 139.72188965 -147.61130859 138.9437793 -147.34667969 138.14208984 C-146.31631031 135.01985465 -145.29295752 131.89534406 -144.27050781 128.77050781 C-143.81286095 127.37331258 -143.35408692 125.97648592 -142.89404297 124.58007812 C-142.28590768 122.73400254 -141.68188664 120.88657311 -141.078125 119.0390625 C-140 116 -140 116 -138 112 C-154.5 112 -171 112 -188 112 C-188 111.34 -188 110.68 -188 110 C-186.75539217 109.32332002 -185.50403104 108.65905281 -184.25 108 C-183.55390625 107.62875 -182.8578125 107.2575 -182.140625 106.875 C-180 106 -180 106 -176 106 C-176 105.34 -176 104.68 -176 104 C-174.65035156 103.34257812 -174.65035156 103.34257812 -173.2734375 102.671875 C-164.13286798 98.17966821 -155.16688527 93.41347178 -146.23925781 88.51269531 C-140.38874628 85.30132856 -134.52401407 82.12144842 -128.625 79 C-127.63705444 78.47611694 -127.63705444 78.47611694 -126.62915039 77.94165039 C-119.13479475 73.98626931 -111.56712404 70.29405469 -103.8125 66.875 C-103.03197266 66.52824219 -102.25144531 66.18148437 -101.44726562 65.82421875 C-97.65703004 64.14609918 -93.86434498 62.50237059 -90 61 C-90 60.34 -90 59.68 -90 59 C-98.91 59 -107.82 59 -117 59 C-112.98689532 55.78951626 -109.25700492 53.38061596 -104.75 51.0625 C-103.41491241 50.36675242 -102.0802753 49.6701397 -100.74609375 48.97265625 C-100.10397949 48.63766113 -99.46186523 48.30266602 -98.80029297 47.95751953 C-95.75593115 46.33831868 -92.78890186 44.58545595 -89.83203125 42.8125 C-88 42 -88 42 -84 42 C-84 41.34 -84 40.68 -84 40 C-72.64667787 33.93848056 -61.22652673 28.0647579 -49.6875 22.36328125 C-44.45373278 19.76457044 -39.24763232 17.14652955 -34.10546875 14.37109375 C-33.26008545 13.91710205 -32.41470215 13.46311035 -31.54370117 12.99536133 C-29.88227598 12.10030618 -28.22468065 11.198095 -26.5715332 10.2878418 C-22.36437506 8.02476325 -18.84699823 6.41945177 -14 6 C-13.67 5.01 -13.34 4.02 -13 3 C-8.97396166 0.71418851 -4.62463797 -0.43355981 0 0 Z " fill="#F8F3FA" transform="translate(222,141)"/>
<path d="M0 0 C2.203125 1.77734375 2.203125 1.77734375 4.25 3.9375 C4.93578125 4.64777344 5.6215625 5.35804688 6.328125 6.08984375 C9.08089574 9.23494863 9.27995258 11.55350584 9.22091675 15.71450806 C8.82621403 19.79790095 7.39534715 23.4686287 5.97265625 27.29296875 C5.33907285 29.07612929 4.70561325 30.85933383 4.07226562 32.64257812 C3.07195963 35.41071897 2.06638829 38.17685086 1.05688477 40.94165039 C-4.43773888 56.06690208 -4.43773888 56.06690208 -6 72 C-8.69547345 70.68740537 -11.27720686 69.27652086 -13.8359375 67.71484375 C-14.92865967 67.04835815 -14.92865967 67.04835815 -16.04345703 66.3684082 C-17.1975708 65.66010864 -17.1975708 65.66010864 -18.375 64.9375 C-19.16632324 64.4530542 -19.95764648 63.9686084 -20.77294922 63.46948242 C-27.9152198 59.08180063 -34.97573442 54.57367775 -42 50 C-41.34232996 44.86854979 -39.83120578 40.32682775 -38.0625 35.5 C-37.03949484 32.66744557 -36.01940391 29.833852 -35 27 C-34.60296875 25.90042969 -34.2059375 24.80085938 -33.796875 23.66796875 C-32.80851557 20.35890262 -33.0460876 18.30200445 -34 15 C-35.47890069 13.26973898 -35.47890069 13.26973898 -37 12 C-37 11.34 -37 10.68 -37 10 C-37.99 9.67 -38.98 9.34 -40 9 C-40 8.01 -40 7.02 -40 6 C-39.36610352 5.89453857 -38.73220703 5.78907715 -38.07910156 5.68041992 C-35.13520983 5.18772173 -32.19242238 4.68890034 -29.25 4.1875 C-28.19699707 4.00807861 -27.14399414 3.82865723 -26.05908203 3.64379883 C-19.69275918 2.53586391 -13.49863713 1.27238832 -7.3046875 -0.58203125 C-4.47456993 -1.09528986 -2.73181329 -0.91060443 0 0 Z " fill="#470E77" transform="translate(277,283)"/>
<path d="M0 0 C-0.55312866 1.55726807 -0.55312866 1.55726807 -1.11743164 3.14599609 C-2.49251647 7.0342729 -3.84094217 10.93137387 -5.18188477 14.83154297 C-5.76362326 16.51176245 -6.35236945 18.1895739 -6.94848633 19.86474609 C-11.75713898 32.63917752 -11.75713898 32.63917752 -11 46 C-10.505 48.475 -10.505 48.475 -10 51 C-25.84 51 -41.68 51 -58 51 C-56.1025 45.204375 -54.205 39.40875 -52.25 33.4375 C-51.65993164 31.6217749 -51.06986328 29.8060498 -50.46191406 27.93530273 C-49.98042065 26.47620064 -49.49836104 25.0172852 -49.015625 23.55859375 C-48.7769873 22.81710083 -48.53834961 22.07560791 -48.29248047 21.31164551 C-44.38163137 9.56937939 -44.38163137 9.56937939 -39.21533203 6.16503906 C-35.67129299 4.88089675 -32.25988958 4.05790814 -28.5546875 3.359375 C-27.86239044 3.2280719 -27.17009338 3.0967688 -26.45681763 2.96148682 C-25.00377609 2.68831788 -23.54988344 2.41964111 -22.09521484 2.15527344 C-19.87200101 1.74945257 -17.65292046 1.32494827 -15.43359375 0.8984375 C-14.01583354 0.63429488 -12.59787088 0.37123612 -11.1796875 0.109375 C-9.25745361 -0.24688965 -9.25745361 -0.24688965 -7.29638672 -0.61035156 C-4.3952413 -0.95328062 -2.69876075 -0.99048003 0 0 Z " fill="#490F78" transform="translate(170,304)"/>
<path d="M0 0 C19.37113748 -0.74345517 37.27233078 2.13069493 52.4375 15.4375 C53.97963561 16.9367284 55.50219542 18.45648146 57 20 C57.64582031 20.63679688 58.29164063 21.27359375 58.95703125 21.9296875 C69.6431924 33.15132077 73.41587331 47.68430432 73.20703125 62.796875 C72.20627591 78.28025954 65.491566 90.92696706 54.20703125 101.31640625 C49.65138524 105.26537832 44.63881852 108.80052109 39 111 C36.65625 110.66796875 36.65625 110.66796875 35 110 C35.55429687 109.52949219 36.10859375 109.05898437 36.6796875 108.57421875 C37.40414062 107.95160156 38.12859375 107.32898438 38.875 106.6875 C39.59429687 106.07261719 40.31359375 105.45773438 41.0546875 104.82421875 C43.19179331 102.9587676 43.19179331 102.9587676 45 100 C45.66 100 46.32 100 47 100 C47.26941406 99.29101562 47.53882813 98.58203125 47.81640625 97.8515625 C49.03333355 94.91969145 50.45209421 92.1795066 51.9375 89.375 C57.94794708 77.29532396 60.5492562 63.88064662 56.75 50.625 C56.19085135 49.07439796 55.60765833 47.5322419 55 46 C54.7215625 45.19433594 54.443125 44.38867188 54.15625 43.55859375 C48.90718165 29.10103051 39.23314137 17.87099107 25.80078125 10.30859375 C17.31100791 6.34196325 8.18123369 3.77181703 -1 2 C-0.67 1.34 -0.34 0.68 0 0 Z " fill="#491177" transform="translate(325,140)"/>
<path d="M0 0 C0.495 0.99 0.495 0.99 1 2 C-0.37109375 4.546875 -0.37109375 4.546875 -2.4375 7.75 C-3.17783061 8.91406375 -3.91603918 10.07947925 -4.65234375 11.24609375 C-5.0376123 11.85565918 -5.42288086 12.46522461 -5.81982422 13.09326172 C-7.79579231 16.28571327 -9.64938667 19.54626634 -11.5 22.8125 C-11.8498999 23.42899414 -12.1997998 24.04548828 -12.56030273 24.68066406 C-13.37538075 26.1193987 -14.18798379 27.55953508 -15 29 C-8.40395976 28.41106784 -1.98754092 27.30129512 4.50195312 26.01635742 C7.39025004 25.45160468 10.04842463 25 13 25 C12.34 26.98 11.68 28.96 11 31 C10.34 31 9.68 31 9 31 C8.34 34.3 7.68 37.6 7 41 C6.67 41 6.34 41 6 41 C6 37.7 6 34.4 6 31 C3.49183541 33.50816459 2.38589981 34.90837736 1 38 C0.67 37.34 0.34 36.68 0 36 C-6.93700142 36.55722997 -13.63422583 37.61379677 -20.4375 39.0625 C-22.1856486 39.43100105 -23.93432692 39.79700048 -25.68359375 40.16015625 C-26.44212646 40.32136963 -27.20065918 40.48258301 -27.98217773 40.64868164 C-30 41 -30 41 -33 41 C-31.2778502 37.00461246 -28.62251392 33.75482416 -25.9375 30.375 C-25.44652832 29.75326904 -24.95555664 29.13153809 -24.44970703 28.4909668 C-20.86431929 23.99037082 -17.10425957 19.69131716 -13.20703125 15.45703125 C-9.95058003 11.83170768 -6.90373204 8.04449269 -3.84765625 4.25 C-2 2 -2 2 0 0 Z " fill="#F7EFF9" transform="translate(282,203)"/>
<path d="M0 0 C2.97973615 -0.08184423 5.95716832 -0.14089764 8.9375 -0.1875 C9.76830078 -0.21263672 10.59910156 -0.23777344 11.45507812 -0.26367188 C20.46922282 -0.36889535 27.40618642 2.31445545 35 7 C35 9.97 35 12.94 35 16 C34.30777344 15.55269531 33.61554688 15.10539063 32.90234375 14.64453125 C22.28592004 8.08444862 11.27145612 4.36817574 -1 2 C-0.67 1.34 -0.34 0.68 0 0 Z " fill="#461473" transform="translate(325,140)"/>
<path d="M0 0 C0.85529297 -0.01224609 1.71058594 -0.02449219 2.59179688 -0.03710938 C8.09203975 -0.04969574 12.78180152 0.63939257 18.0625 2.1875 C18.0625 2.5175 18.0625 2.8475 18.0625 3.1875 C15.7525 3.5175 13.4425 3.8475 11.0625 4.1875 C10.8388932 7.1129644 10.8388932 7.1129644 12.0625 9.1875 C11.13953125 8.98253906 10.2165625 8.77757813 9.265625 8.56640625 C-1.78931887 6.24078851 -12.66026606 5.52258175 -23.9375 5.1875 C-22.9375 3.1875 -22.9375 3.1875 -20.3125 2.125 C-13.56154264 0.24973407 -6.95480794 0.00521741 0 0 Z " fill="#51237B" transform="translate(341.9375,107.8125)"/>
<path d="M0 0 C5.17656323 2.2185271 8.29718656 4.85637543 12 9 C12 9.66 12 10.32 12 11 C12.66 11 13.32 11 14 11 C15.40034072 12.71833476 16.72205227 14.50129099 18 16.3125 C18.70125 17.29863281 19.4025 18.28476563 20.125 19.30078125 C21.43560452 21.18750567 22.72570825 23.08856237 24 25 C23.505 26.485 23.505 26.485 23 28 C22.62230469 27.45472656 22.24460937 26.90945312 21.85546875 26.34765625 C16.40993291 18.88714462 9.55540001 11.82688853 1 8 C1 7.34 1 6.68 1 6 C-0.093125 5.896875 -1.18625 5.79375 -2.3125 5.6875 C-6 5 -6 5 -9 2 C-6.03 2.33 -3.06 2.66 0 3 C0 2.01 0 1.02 0 0 Z " fill="#BAB2D0" transform="translate(371,135)"/>
<path d="M0 0 C3.58707329 3.38779144 6.49689539 6.73545141 9 11 C9 11.99 9 12.98 9 14 C2.72307692 15.35384615 2.72307692 15.35384615 -0.9375 13.5625 C-1.618125 13.046875 -2.29875 12.53125 -3 12 C-2.67 11.01 -2.34 10.02 -2 9 C-1.34 9 -0.68 9 0 9 C0 6.03 0 3.06 0 0 Z " fill="#F1E7F6" transform="translate(326,223)"/>
<path d="M0 0 C3.00024947 -0.05444001 5.99949039 -0.0938836 9 -0.125 C9.83917969 -0.14175781 10.67835938 -0.15851563 11.54296875 -0.17578125 C17.05254877 -0.21849117 21.71048292 0.44497993 27 2 C27 2.33 27 2.66 27 3 C21.25 3.125 21.25 3.125 19 2 C19.33 3.32 19.66 4.64 20 6 C17.3845928 7.3077036 16.4359478 6.76582573 13.6484375 6.00390625 C12.79765625 5.77509766 11.946875 5.54628906 11.0703125 5.31054688 C10.18085938 5.06369141 9.29140625 4.81683594 8.375 4.5625 C7.4778125 4.31951172 6.580625 4.07652344 5.65625 3.82617188 C3.43568842 3.22378549 1.21714519 2.61481999 -1 2 C-0.67 1.34 -0.34 0.68 0 0 Z " fill="#5B3183" transform="translate(325,140)"/>
<path d="M0 0 C4.74259969 7.11389954 3.59173138 18.56201464 2.5 26.75 C2.335 27.4925 2.17 28.235 2 29 C1.67 27.68 1.34 26.36 1 25 C0.34 25 -0.32 25 -1 25 C-1.02886984 21.02084841 -1.04675406 17.04172347 -1.0625 13.0625 C-1.07087891 11.92619141 -1.07925781 10.78988281 -1.08789062 9.61914062 C-1.09111328 8.53955078 -1.09433594 7.45996094 -1.09765625 6.34765625 C-1.10289307 5.34742432 -1.10812988 4.34719238 -1.11352539 3.31665039 C-1 1 -1 1 0 0 Z " fill="#541E83" transform="translate(395,183)"/>
<path d="M0 0 C0.92232422 0.00451172 1.84464844 0.00902344 2.79492188 0.01367188 C5.05085048 0.02536062 7.30663967 0.04174545 9.5625 0.0625 C9.5625 0.3925 9.5625 0.7225 9.5625 1.0625 C1.6425 1.5575 1.6425 1.5575 -6.4375 2.0625 C-6.7675 3.0525 -7.0975 4.0425 -7.4375 5.0625 C-13.0475 5.0625 -18.6575 5.0625 -24.4375 5.0625 C-23.4375 3.0625 -23.4375 3.0625 -20.8125 2 C-13.86634993 0.07051387 -7.14868231 -0.06690631 0 0 Z " fill="#653F84" transform="translate(342.4375,107.9375)"/>
<path d="M0 0 C2.31 0.66 4.62 1.32 7 2 C3.52497453 6.07937773 -1.00964574 9.07590214 -6 11 C-8.28125 10.63671875 -8.28125 10.63671875 -10 10 C-9.44570313 9.52949219 -8.89140625 9.05898437 -8.3203125 8.57421875 C-7.59585937 7.95160156 -6.87140625 7.32898438 -6.125 6.6875 C-5.40570313 6.07261719 -4.68640625 5.45773438 -3.9453125 4.82421875 C-1.80820669 2.9587676 -1.80820669 2.9587676 0 0 Z " fill="#5D347F" transform="translate(370,240)"/>
<path d="M0 0 C9.24 0 18.48 0 28 0 C28 0.66 28 1.32 28 2 C25.03 2 22.06 2 19 2 C19 2.33 19 2.66 19 3 C13.06 3 7.12 3 1 3 C0.67 2.01 0.34 1.02 0 0 Z " fill="#C6BADC" transform="translate(104,200)"/>
<path d="M0 0 C0.33 1.32 0.66 2.64 1 4 C7.08764991 3.93129663 13.17460148 3.84341594 19.26171875 3.73754883 C21.33358027 3.70424177 23.40553379 3.67622803 25.47753906 3.65356445 C28.45157173 3.62012437 31.42475679 3.56781495 34.3984375 3.51171875 C35.32868744 3.50532883 36.25893738 3.4989389 37.21737671 3.49235535 C38.07811798 3.47256119 38.93885925 3.45276703 39.82568359 3.43237305 C40.58513275 3.42126999 41.34458191 3.41016693 42.12704468 3.39872742 C44.410719 3.14042752 44.410719 3.14042752 46 0 C46.495 2.475 46.495 2.475 47 5 C31.16 5 15.32 5 -1 5 C-0.67 3.35 -0.34 1.7 0 0 Z " fill="#54277A" transform="translate(168,350)"/>
<path d="M0 0 C0 0.66 0 1.32 0 2 C15.18 2 30.36 2 46 2 C46 2.33 46 2.66 46 3 C29.5 3 13 3 -4 3 C-4 2.34 -4 1.68 -4 1 C-2 0 -2 0 0 0 Z " fill="#EBE2F6" transform="translate(38,250)"/>
<path d="M0 0 C4.23322844 0.62045463 7.52290295 2.10523559 11.3125 4.0625 C12.38113281 4.61035156 13.44976562 5.15820312 14.55078125 5.72265625 C15.35902344 6.14417969 16.16726563 6.56570312 17 7 C16.67 7.66 16.34 8.32 16 9 C13.03 9 10.06 9 7 9 C6.938125 7.8553125 6.938125 7.8553125 6.875 6.6875 C6.22176391 3.67594887 6.22176391 3.67594887 2.9375 2.1875 C1.968125 1.795625 0.99875 1.40375 0 1 C0 0.67 0 0.34 0 0 Z " fill="#4D1E7C" transform="translate(353,143)"/>
<path d="M0 0 C0.33 0 0.66 0 1 0 C1.04898437 0.94101563 1.09796875 1.88203125 1.1484375 2.8515625 C1.22320312 4.09679687 1.29796875 5.34203125 1.375 6.625 C1.44460938 7.85476562 1.51421875 9.08453125 1.5859375 10.3515625 C1.9814487 13.83653855 2.76261849 16.73049601 4 20 C3.01 20.33 2.02 20.66 1 21 C-0.66710346 22.49985609 -0.66710346 22.49985609 -2 24 C-2.33 22.02 -2.66 20.04 -3 18 C-2.34 17.67 -1.68 17.34 -1 17 C-0.67 11.39 -0.34 5.78 0 0 Z " fill="#DFCEE8" transform="translate(287,246)"/>
<path d="M0 0 C0 3 0 3 -1 6 C-2.70703125 7.68359375 -2.70703125 7.68359375 -4.8125 9.4375 C-7.66759505 11.85689832 -10.4052662 14.2971523 -13 17 C-13.99 16.67 -14.98 16.34 -16 16 C-15.278125 15.29875 -14.55625 14.5975 -13.8125 13.875 C-11.90843614 11.98163313 -10.26820864 10.09933371 -8.5625 8 C-5.89710684 4.87953971 -3.20802611 2.53657879 0 0 Z " fill="#C2B4D2" transform="translate(414,255)"/>
<path d="M0 0 C1.65 0 3.3 0 5 0 C5.33 0.66 5.66 1.32 6 2 C-2.17905449 5.21319998 -9.15822509 7.31577768 -18 7 C-17.360625 6.690625 -16.72125 6.38125 -16.0625 6.0625 C-14.06389179 5.1654837 -14.06389179 5.1654837 -13 4 C-9.90409573 3.46451656 -6.79878868 3.03426398 -3.6875 2.59765625 C-2.800625 2.40042969 -1.91375 2.20320313 -1 2 C-0.67 1.34 -0.34 0.68 0 0 Z " fill="#5B2C7E" transform="translate(366,275)"/>
<path d="M0 0 C3.28212246 0.43761633 4.84832931 1.52557871 7 4 C6.67 4.66 6.34 5.32 6 6 C5.278125 5.79375 4.55625 5.5875 3.8125 5.375 C0.50788394 4.93438453 -0.99055726 5.68819163 -4 7 C-5.32 7 -6.64 7 -8 7 C-6.47974746 3.95949492 -3.80760674 2.81324602 -1 1 C-0.67 0.67 -0.34 0.34 0 0 Z " fill="#55287D" transform="translate(326,171)"/>
<path d="M0 0 C1 3 1 3 0 6 C7.26 6.33 14.52 6.66 22 7 C22 7.33 22 7.66 22 8 C14.08 8 6.16 8 -2 8 C-1.34 5.36 -0.68 2.72 0 0 Z " fill="#3F0F6B" transform="translate(61,346)"/>
<path d="M0 0 C3.99069878 5.98604818 4.21754277 13.95788496 5 21 C0.72868035 14.59302052 -0.42104151 7.57874721 0 0 Z " fill="#C1BAD2" transform="translate(220,340)"/>
<path d="M0 0 C0.87776229 3.14422313 0.97911796 4.86682253 0 8 C-0.061875 8.66 -0.12375 9.32 -0.1875 10 C-1.48408827 13.19160189 -4.12914606 14.28970403 -7 16 C-5.35433477 10.31497465 -2.70967216 5.23318364 0 0 Z " fill="#DDC5EA" transform="translate(421,227)"/>
<path d="M0 0 C0 0.66 0 1.32 0 2 C8.25 2 16.5 2 25 2 C23 4 23 4 20.29443359 4.13525391 C19.17375488 4.08288574 18.05307617 4.03051758 16.8984375 3.9765625 C15.08085937 3.89921875 15.08085937 3.89921875 13.2265625 3.8203125 C11.32003906 3.72363281 11.32003906 3.72363281 9.375 3.625 C8.09625 3.56828125 6.8175 3.5115625 5.5 3.453125 C2.33279313 3.31130977 -0.83366113 3.15986504 -4 3 C-4 2.34 -4 1.68 -4 1 C-2 0 -2 0 0 0 Z " fill="#977AAC" transform="translate(140,190)"/>
<path d="M0 0 C-0.33 0.99 -0.66 1.98 -1 3 C-1.99 3 -2.98 3 -4 3 C-4 3.66 -4 4.32 -4 5 C-3.01 5.33 -2.02 5.66 -1 6 C-2.65 6 -4.3 6 -6 6 C-6.433125 5.0409375 -6.433125 5.0409375 -6.875 4.0625 C-7.82823451 1.84793921 -7.82823451 1.84793921 -10 1 C-6.52674819 -0.1577506 -3.63932552 -0.06866652 0 0 Z " fill="#460A72" transform="translate(360,111)"/>
<path d="M0 0 C2.97 0 5.94 0 9 0 C9 0.66 9 1.32 9 2 C7 4 7 4 5.0546875 4.1953125 C3.03645833 4.13020833 1.01822917 4.06510417 -1 4 C-0.67 2.68 -0.34 1.36 0 0 Z " fill="#420D6D" transform="translate(336,109)"/>
<path d="M0 0 C0.66 0.99 1.32 1.98 2 3 C1.34 3 0.68 3 0 3 C-0.05607422 4.24716797 -0.05607422 4.24716797 -0.11328125 5.51953125 C-0.17902344 6.60621094 -0.24476563 7.69289063 -0.3125 8.8125 C-0.37050781 9.89144531 -0.42851562 10.97039062 -0.48828125 12.08203125 C-1.03068507 15.17497517 -1.55289624 16.13022903 -4 18 C-3.61020794 11.44074057 -2.57886807 6.05473373 0 0 Z " fill="#582E80" transform="translate(179,318)"/>
<path d="M0 0 C1.56073255 2.34109882 2.86373867 4.56333403 4.125 7.0625 C4.47820312 7.75472656 4.83140625 8.44695312 5.1953125 9.16015625 C6 11 6 11 6 13 C4.02 13.33 2.04 13.66 0 14 C-0.33 13.34 -0.66 12.68 -1 12 C-0.01 12 0.98 12 2 12 C1.87625 10.700625 1.7525 9.40125 1.625 8.0625 C1.55539062 7.33160156 1.48578125 6.60070312 1.4140625 5.84765625 C1.27742188 5.23792969 1.14078125 4.62820313 1 4 C0.34 3.67 -0.32 3.34 -1 3 C-0.67 2.01 -0.34 1.02 0 0 Z " fill="#59337F" transform="translate(281,260)"/>
<path d="M0 0 C1.98 0 3.96 0 6 0 C5.34 5.94 4.68 11.88 4 18 C3.67 18 3.34 18 3 18 C2.92652344 16.30230469 2.92652344 16.30230469 2.8515625 14.5703125 C2.77653486 13.08851661 2.70098703 11.606747 2.625 10.125 C2.57859375 9.00544922 2.57859375 9.00544922 2.53125 7.86328125 C2.44356169 3.46526812 2.44356169 3.46526812 0 0 Z " fill="#633E82" transform="translate(277,238)"/>
<path d="M0 0 C0.66 1.32 1.32 2.64 2 4 C-0.39509338 6.89932357 -2.31245243 7.50168276 -6 8 C-5.65120368 4.74456771 -4.97866739 3.98126893 -2.4375 1.75 C-1.633125 1.1725 -0.82875 0.595 0 0 Z " fill="#4D2474" transform="translate(382,248)"/>
<path d="M0 0 C0.33 0.66 0.66 1.32 1 2 C-0.109375 4.3828125 -0.109375 4.3828125 -1.75 7.125 C-2.28109375 8.03507813 -2.8121875 8.94515625 -3.359375 9.8828125 C-3.90078125 10.58148438 -4.4421875 11.28015625 -5 12 C-8 12 -8 12 -10 11 C-6.7 7.37 -3.4 3.74 0 0 Z " fill="#D9BBED" transform="translate(282,203)"/>
<path d="M0 0 C0.33 0.66 0.66 1.32 1 2 C3.97 2 6.94 2 10 2 C10 2.66 10 3.32 10 4 C4.06 4.495 4.06 4.495 -2 5 C-2 4.01 -2 3.02 -2 2 C-1.34 2 -0.68 2 0 2 C0 1.34 0 0.68 0 0 Z " fill="#B3ADCB" transform="translate(338,302)"/>
<path d="M0 0 C1.33453734 4.04900444 0.51356885 6.37881926 -1.03125 10.2265625 C-2 12 -2 12 -4.1875 13.5 C-4.785625 13.665 -5.38375 13.83 -6 14 C-4.16508812 9.25981099 -2.08058541 4.63586749 0 0 Z " fill="#BEB3CF" transform="translate(429,229)"/>
<path d="M0 0 C2.60704898 2.60704898 2.23905333 4.47338241 2.265625 8.02734375 C2 10 2 10 0 13 C-1 12 -1 12 -1.125 8.75 C-1.02213207 5.66396211 -0.72382033 2.98575886 0 0 Z " fill="#5C297B" transform="translate(284,291)"/>
<path d="M0 0 C0.66 0.99 1.32 1.98 2 3 C1.01 3.495 1.01 3.495 0 4 C2.97 4 5.94 4 9 4 C5.52630934 5.73684533 3.92380063 6.30084112 0.25 6.625 C-0.54921875 6.69976562 -1.3484375 6.77453125 -2.171875 6.8515625 C-3.07679688 6.92503906 -3.07679688 6.92503906 -4 7 C-2.79618552 4.50638429 -1.54571278 2.31856917 0 0 Z " fill="#DBC3EC" transform="translate(253,237)"/>
<path d="M0 0 C2.475 0.99 2.475 0.99 5 2 C5.33 5.63 5.66 9.26 6 13 C3.51205122 9.68273496 2.47178058 8.00386091 1.3125 4.25 C1.06113281 3.45078125 0.80976563 2.6515625 0.55078125 1.828125 C0.36902344 1.22484375 0.18726563 0.6215625 0 0 Z " fill="#643D8B" transform="translate(376,175)"/>
<path d="M0 0 C0.66 0.33 1.32 0.66 2 1 C2.33 0.67 2.66 0.34 3 0 C5.0625 0.4375 5.0625 0.4375 7 1 C0.6 5.06153846 0.6 5.06153846 -2.4375 4.75 C-2.953125 4.5025 -3.46875 4.255 -4 4 C-2.68 2.68 -1.36 1.36 0 0 Z " fill="#705089" transform="translate(364,246)"/>
<path d="M0 0 C2.5 2.3125 2.5 2.3125 5 5 C5 5.99 5 6.98 5 8 C3.35 8 1.7 8 0 8 C0 5.36 0 2.72 0 0 Z " fill="#CCB9DD" transform="translate(326,223)"/>
<path d="M0 0 C0.33 0.99 0.66 1.98 1 3 C-1.3125 6.1875 -1.3125 6.1875 -4 9 C-4.66 9 -5.32 9 -6 9 C-6.33 9.99 -6.66 10.98 -7 12 C-7.66 11.67 -8.32 11.34 -9 11 C-6.03 7.37 -3.06 3.74 0 0 Z " fill="#E0CCEA" transform="translate(267,220)"/>
<path d="M0 0 C1.32 0 2.64 0 4 0 C3.5 1.9375 3.5 1.9375 2 4 C-0.69658452 4.68790422 -3.2017019 4.81946464 -6 5 C-5.195625 4.360625 -4.39125 3.72125 -3.5625 3.0625 C-1.7249496 1.59396498 -1.7249496 1.59396498 0 0 Z " fill="#B3A9C5" transform="translate(126,184)"/>
<path d="M0 0 C0.33 0 0.66 0 1 0 C1 1.65 1 3.3 1 5 C2.32 5.66 3.64 6.32 5 7 C4.67 8.32 4.34 9.64 4 11 C2.02 8.69 0.04 6.38 -2 4 C-1.34 2.68 -0.68 1.36 0 0 Z " fill="#491F73" transform="translate(368,158)"/>
<path d="M0 0 C-3.64859761 3.04049801 -7.7444533 4.96518762 -12 7 C-12 6.01 -12 5.02 -12 4 C-4.71428571 -0.57142857 -4.71428571 -0.57142857 0 0 Z " fill="#F5E3F8" transform="translate(196,160)"/>
<path d="M0 0 C1.98 0 3.96 0 6 0 C3.68118495 2.67901932 1.68185532 3.66204403 -1.6875 4.6875 C-2.89986328 5.06455078 -2.89986328 5.06455078 -4.13671875 5.44921875 C-5.05904297 5.72185547 -5.05904297 5.72185547 -6 6 C-6 5.34 -6 4.68 -6 4 C-4.02 3.34 -2.04 2.68 0 2 C0 1.34 0 0.68 0 0 Z " fill="#C3B9D3" transform="translate(124,202)"/>
<path d="M0 0 C0.66 3.63 1.32 7.26 2 11 C-2 8 -2 8 -2.75 4.3125 C-2.8325 3.219375 -2.915 2.12625 -3 1 C-1 0 -1 0 0 0 Z " fill="#5B2D7E" transform="translate(102,341)"/>
<path d="M0 0 C0.33 1.65 0.66 3.3 1 5 C0.525625 4.505 0.05125 4.01 -0.4375 3.5 C-4.20358351 1.29546331 -7.73459379 1.75391887 -12 2 C-7.77897456 -0.19565018 -4.67132787 -1.55710929 0 0 Z " fill="#EEDBF8" transform="translate(279,281)"/>
<path d="M0 0 C0.33 0.66 0.66 1.32 1 2 C-2.08290155 6.22797927 -2.08290155 6.22797927 -4 8 C-6.8125 8.375 -6.8125 8.375 -9 8 C-6.14723863 5.06799526 -3.34920216 2.35684596 0 0 Z " fill="#E7D9F4" transform="translate(399,259)"/>
<path d="M0 0 C0.66 1.32 1.32 2.64 2 4 C-0.31 5.98 -2.62 7.96 -5 10 C-5 8.68 -5 7.36 -5 6 C-4.360625 5.7525 -3.72125 5.505 -3.0625 5.25 C-0.81258459 4.18437567 -0.81258459 4.18437567 -0.25 1.875 C-0.1675 1.25625 -0.085 0.6375 0 0 Z " fill="#3C1364" transform="translate(384,230)"/>
<path d="M0 0 C0.33 0.99 0.66 1.98 1 3 C-0.25 5.1875 -0.25 5.1875 -2 7 C-5 7 -5 7 -7 6 C-4.69 4.02 -2.38 2.04 0 0 Z " fill="#F4DFF9" transform="translate(275,213)"/>
<path d="M0 0 C0.33 0 0.66 0 1 0 C1 4.29 1 8.58 1 13 C0.01 13.33 -0.98 13.66 -2 14 C-1.43393721 9.30976546 -0.81462495 4.65499974 0 0 Z " fill="#EFD5F5" transform="translate(427,204)"/>
<path d="M0 0 C0.33 0.66 0.66 1.32 1 2 C0.0625 4.625 0.0625 4.625 -1 7 C-1.99 7 -2.98 7 -4 7 C-4 6.34 -4 5.68 -4 5 C-3.34 5 -2.68 5 -2 5 C-2 4.34 -2 3.68 -2 3 C-3.32 2.67 -4.64 2.34 -6 2 C-6 1.67 -6 1.34 -6 1 C-4.02 0.67 -2.04 0.34 0 0 Z " fill="#461365" transform="translate(344,314)"/>
<path d="M0 0 C0.66 0 1.32 0 2 0 C1.71758359 1.46015291 1.42373386 2.91809793 1.125 4.375 C0.96257812 5.18710938 0.80015625 5.99921875 0.6328125 6.8359375 C0 9 0 9 -2 11 C-2.33 9.02 -2.66 7.04 -3 5 C-2.34 4.67 -1.68 4.34 -1 4 C-0.34786708 1.97536745 -0.34786708 1.97536745 0 0 Z " fill="#40156A" transform="translate(351,229)"/>
<path d="M0 0 C1.65 0.33 3.3 0.66 5 1 C5 1.66 5 2.32 5 3 C1.53846154 6 1.53846154 6 -1 6 C-0.67 4.02 -0.34 2.04 0 0 Z " fill="#BBB3C8" transform="translate(222,334)"/>
<path d="M0 0 C0.66 0.66 1.32 1.32 2 2 C1.01 5.3 0.02 8.6 -1 12 C-1.33 12 -1.66 12 -2 12 C-2.05422947 10.5629191 -2.09289723 9.12524538 -2.125 7.6875 C-2.14820313 6.88699219 -2.17140625 6.08648437 -2.1953125 5.26171875 C-2 3 -2 3 0 0 Z " fill="#521C77" transform="translate(341,320)"/>
<path d="M0 0 C0.33 0 0.66 0 1 0 C1.36923077 4.55384615 1.36923077 4.55384615 -0.5 6.8125 C-0.995 7.204375 -1.49 7.59625 -2 8 C-2.99 7.67 -3.98 7.34 -5 7 C-4.19152271 5.83054208 -3.37810888 4.66449539 -2.5625 3.5 C-2.11003906 2.8503125 -1.65757812 2.200625 -1.19140625 1.53125 C-0.79824219 1.0259375 -0.40507812 0.520625 0 0 Z " fill="#C6B9D7" transform="translate(422,243)"/>
<path d="M0 0 C0 0.99 0 1.98 0 3 C-1.75 4.75 -1.75 4.75 -4 6 C-5.32 5.67 -6.64 5.34 -8 5 C-4.04 2.525 -4.04 2.525 0 0 Z " fill="#4E1E74" transform="translate(156,197)"/>
<path d="M0 0 C1.27350058 3.01009228 0.99687398 4.00781505 -0.25 7.125 C-2 10 -2 10 -5 12 C-3.68938409 7.76570244 -2.05643741 3.92592596 0 0 Z " fill="#B2AAC2" transform="translate(17,44)"/>
<path d="M0 0 C1.32 1.32 2.64 2.64 4 4 C3.67 4.99 3.34 5.98 3 7 C1.68 6.67 0.36 6.34 -1 6 C-0.67 4.02 -0.34 2.04 0 0 Z " fill="#4E2677" transform="translate(115,345)"/>
<path d="M0 0 C0.33 0 0.66 0 1 0 C1.37211538 6.57403846 1.37211538 6.57403846 -0.51171875 8.73046875 C-1.00285156 9.14941406 -1.49398437 9.56835938 -2 10 C-1.85950482 8.52031676 -1.71245174 7.04125484 -1.5625 5.5625 C-1.48128906 4.73878906 -1.40007812 3.91507812 -1.31640625 3.06640625 C-1 1 -1 1 0 0 Z " fill="#411870" transform="translate(124,321)"/>
<path d="M0 0 C1.04973814 4.19895255 0.72795155 6.79405774 0 11 C-0.99 11 -1.98 11 -3 11 C-2.01 7.37 -1.02 3.74 0 0 Z " fill="#6D498E" transform="translate(186,296)"/>
<path d="M0 0 C-0.66 1.32 -1.32 2.64 -2 4 C-4.97 3.505 -4.97 3.505 -8 3 C-4.93882432 0.37613513 -4.26826873 0 0 0 Z " fill="#562F84" transform="translate(148,187)"/>
<path d="M0 0 C3.79588866 0.54226981 5.47211993 2.20127563 8 5 C6.68 5.33 5.36 5.66 4 6 C0 1.125 0 1.125 0 0 Z " fill="#451E78" transform="translate(388,124)"/>
<path d="M0 0 C2 3 2 3 2 5 C-2.29 5 -6.58 5 -11 5 C-11 4.67 -11 4.34 -11 4 C-7.7 3.67 -4.4 3.34 -1 3 C-0.67 2.01 -0.34 1.02 0 0 Z " fill="#613F84" transform="translate(213,350)"/>
<path d="M0 0 C0 0.66 0 1.32 0 2 C-3.3 2.33 -6.6 2.66 -10 3 C-8.0130571 -0.97388579 -3.91761109 -0.08705802 0 0 Z " fill="#450D64" transform="translate(178,292)"/>
<path d="M0 0 C-3.79692186 2.82561627 -6.18569279 4.56638908 -11 4 C-4.14893617 -1.38297872 -4.14893617 -1.38297872 0 0 Z " fill="#3B0A73" transform="translate(371,259)"/>
<path d="M0 0 C0.33 0 0.66 0 1 0 C1.25 2.75 1.25 2.75 1 6 C-1 8.375 -1 8.375 -3 10 C-2.49287967 6.28111761 -1.88391785 3.26545761 0 0 Z " fill="#543187" transform="translate(379,226)"/>
<path d="M0 0 C0.33 0.99 0.66 1.98 1 3 C1.99 3.33 2.98 3.66 4 4 C1.36 4.33 -1.28 4.66 -4 5 C-3 2 -3 2 0 0 Z " fill="#3E1E67" transform="translate(270,228)"/>
<path d="M0 0 C1.32 0.66 2.64 1.32 4 2 C2.7934375 2.433125 2.7934375 2.433125 1.5625 2.875 C-1.1326468 3.73262568 -1.1326468 3.73262568 -2 6 C-2.99 5.67 -3.98 5.34 -5 5 C-3.35 3.35 -1.7 1.7 0 0 Z " fill="#ECE1F2" transform="translate(235,333)"/>
<path d="M0 0 C0.4125 0.474375 0.825 0.94875 1.25 1.4375 C3.182185 3.16266518 4.48192275 3.56584875 7 4 C7 4.99 7 5.98 7 7 C4.20171644 6.61402985 3.1794116 6.19863427 1.25 4.0625 C0 2 0 2 0 0 Z " fill="#3F1468" transform="translate(295,268)"/>
<path d="M0 0 C0.95930163 3.8372065 1.15195929 5.35212892 0 9 C-0.99 9.66 -1.98 10.32 -3 11 C-2.01 7.37 -1.02 3.74 0 0 Z " fill="#E5D2F0" transform="translate(350,238)"/>
<path d="M0 0 C1.32 0 2.64 0 4 0 C4 0.99 4 1.98 4 3 C2.35 3 0.7 3 -1 3 C-1 3.66 -1 4.32 -1 5 C-1.66 4.67 -2.32 4.34 -3 4 C-1.75 2 -1.75 2 0 0 Z " fill="#43146A" transform="translate(368,243)"/>
<path d="M0 0 C-1 2 -2 4 -3 6 C-3.99 6 -4.98 6 -6 6 C-5.6875 4.125 -5.6875 4.125 -5 2 C-2 0 -2 0 0 0 Z " fill="#BCBACC" transform="translate(364,234)"/>
<path d="M0 0 C0.99 0 1.98 0 3 0 C3.33 2.64 3.66 5.28 4 8 C2.35 6.35 0.7 4.7 -1 3 C-0.67 2.01 -0.34 1.02 0 0 Z " fill="#4D1C75" transform="translate(330,224)"/>
<path d="M0 0 C0.33 0 0.66 0 1 0 C1.33 2.31 1.66 4.62 2 7 C0.68 7 -0.64 7 -2 7 C-1.125 1.125 -1.125 1.125 0 0 Z " fill="#49276C" transform="translate(237,326)"/>
<path d="M0 0 C0.66 1.32 1.32 2.64 2 4 C1.07451225 6.69933926 0.57626463 7.71186768 -2 9 C-1.34 6.03 -0.68 3.06 0 0 Z " fill="#EEDFF5" transform="translate(166,313)"/>
<path d="M0 0 C-3.29549466 1.72264494 -6.33118845 3.29445932 -10 4 C-4.75 -1.425 -4.75 -1.425 0 0 Z " fill="#E4CBED" transform="translate(124,306)"/>
<path d="M0 0 C-0.33 0.66 -0.66 1.32 -1 2 C-3.97 1.67 -6.94 1.34 -10 1 C-10 0.67 -10 0.34 -10 0 C-3.375 -1.125 -3.375 -1.125 0 0 Z " fill="#54237A" transform="translate(247,289)"/>
<path d="M0 0 C-1.125 1.5625 -1.125 1.5625 -3 3 C-6.1875 2.6875 -6.1875 2.6875 -9 2 C-4.13793103 -1.24137931 -4.13793103 -1.24137931 0 0 Z " fill="#C5BDD9" transform="translate(375,285)"/>
<path d="M0 0 C-2.8125 1.5625 -2.8125 1.5625 -6 3 C-6.99 2.67 -7.98 2.34 -9 2 C-8 0 -8 0 -6.1875 -0.6875 C-3.81180233 -1.02688538 -2.26664171 -0.72856341 0 0 Z " fill="#4A1F74" transform="translate(380,273)"/>
<path d="M0 0 C0.66 0.33 1.32 0.66 2 1 C2 1.66 2 2.32 2 3 C0.03852126 4.38938077 -1.96166576 5.7260411 -4 7 C-3.39816251 4.97954558 -2.72693904 2.97888961 -2 1 C-1.34 0.67 -0.68 0.34 0 0 Z " fill="#ECD8F2" transform="translate(418,236)"/>
<path d="M0 0 C0.99 0 1.98 0 3 0 C2.67 1.65 2.34 3.3 2 5 C0.35 5 -1.3 5 -3 5 C-1.6875 2.5 -1.6875 2.5 0 0 Z " fill="#502074" transform="translate(395,234)"/>
<path d="M0 0 C0.99 0.33 1.98 0.66 3 1 C0.03 3.475 0.03 3.475 -3 6 C-3.66 5.67 -4.32 5.34 -5 5 C-3.35 3.35 -1.7 1.7 0 0 Z " fill="#DCCAE7" transform="translate(384,235)"/>
<path d="M0 0 C-0.66 1.98 -1.32 3.96 -2 6 C-2.33 4.68 -2.66 3.36 -3 2 C-4.98 2 -6.96 2 -9 2 C-9 1.67 -9 1.34 -9 1 C-5.94152152 0.45627049 -3.11227195 0 0 0 Z " fill="#D4B2E4" transform="translate(295,228)"/>
<path d="M0 0 C2.79872437 2.52788007 4.45773019 4.20411134 5 8 C4.34 8 3.68 8 3 8 C2.67 6.68 2.34 5.36 2 4 C1.34 4 0.68 4 0 4 C0 2.68 0 1.36 0 0 Z " fill="#50297B" transform="translate(388,169)"/>
<path d="M0 0 C1.32 0 2.64 0 4 0 C3.1875 1.9375 3.1875 1.9375 2 4 C1.01 4.33 0.02 4.66 -1 5 C-0.67 3.35 -0.34 1.7 0 0 Z " fill="#40146C" transform="translate(175,171)"/>
<path d="M0 0 C1.32 1.32 2.64 2.64 4 4 C3.67 4.99 3.34 5.98 3 7 C2.01 6.67 1.02 6.34 0 6 C0 4.02 0 2.04 0 0 Z " fill="#4B2477" transform="translate(408,141)"/>
<path d="M0 0 C4.455 0.99 4.455 0.99 9 2 C9 2.66 9 3.32 9 4 C5.7 3.34 2.4 2.68 -1 2 C-0.67 1.34 -0.34 0.68 0 0 Z " fill="#B2A7C7" transform="translate(263,128)"/>
</svg>
